<mxfile host="app.diagrams.net" modified="2021-01-30T11:32:54.852Z" agent="5.0 (Windows NT 10.0; Win64; x64) AppleWebKit/537.36 (KHTML, like Gecko) Chrome/88.0.4324.96 Safari/537.36 Edg/88.0.705.50" etag="NohE4M_h0LJ2XrfcSTYg" version="14.2.4" type="github">
  <diagram id="RrIT6vrIZmhOBIqsaPFv" name="第 1 页">
    <mxGraphModel dx="2182" dy="754" grid="1" gridSize="10" guides="1" tooltips="1" connect="1" arrows="1" fold="1" page="1" pageScale="1" pageWidth="827" pageHeight="1169" math="0" shadow="0">
      <root>
        <mxCell id="0" />
        <mxCell id="1" parent="0" />
        <mxCell id="Xt4EFj2HuESWmTIGHUWQ-2" value="" style="shape=image;verticalLabelPosition=bottom;labelBackgroundColor=#ffffff;verticalAlign=top;aspect=fixed;imageAspect=0;image=data:image/png,iVBORw0KGgoAAAANSUhEUgAAAjoAAAB4CAYAAAD7R1iOAAAAAXNSR0IArs4c6QAAAARnQU1BAACxjwv8YQUAAAAgY0hSTQAAeiYAAICEAAD6AAAAgOgAAHUwAADqYAAAOpgAABdwnLpRPAAAD3NJREFUeF7t3etx3LYWAGAV4AbSgBtwA7eCW4E7SAeKPS4gf/0jY6kGN+Eu0sy9BLlccUE8Se6uJX2c0cQPLkF+3AQnBwfAw4ODAAECBAgQIECAAAECBAgQIECAAAECBAgQIECAAAECBAgQIECAAAECBAgQIECAAAECBAgQIECAAAECBAgQIECAAAECBAgQIECAAAECBAgQIECAAAECBAgQIECAAAECBAgQIECAAAECBAgQIECAAAECBAgQIECAAAECBAgQIECAAAECBAgQIECAAAECBAgQIECAAAECBAgQIECAAAECBAgQIECAAAECBAgQIECAwLsU+PL08+Hxnz/e5bN7aAIECBAgQOANC3x9+vXw9enfN/yEHo0AAQIECLxSgS9Pzw/hx9Ev8NfTf4YAZwhynv83GP7dfwGfIECAAAECBK4jsOyk//rx53UaecNXDYFNCHDGnyGbY9jqDb9sj0aAAAECr0fgy9PnIfvw86WTHjvqT6/nAe58p1+fH8fA5hzkjNmcn3e+K80TIECAAIF3LBCyN2F4Ku6g52zEO6ZpevRvPz7m/YZAJ/g6CBAgQIAAgRsKFIObecjlNOxyw9t6NU1NfsPwVJS9WWZyWgLFMKT17fuHV/PcbpQAAQIECPz2AlP2ZpoJVOuoDbusX+c4tDf6TYXGpZ9SIXcYEjQb67f/18UNEiBAgMBrFggZhVVNzkXn/fiaH+/q9/7l+b/FYDE3bDUVe0+BpoMAAQIECBC4osCYWchkJtSX1OHHAuSUXyaICQXfZmTVXZ1BgAABAgQOE8gOYZlx1WTcUsg9Zc+GYcMoKDJ9v4nYSQQIECBAYLuAQGe7Xfhkrl5nCmzClPNTTVQy8/NrX+M+TYAAAQIECJQFWjISDPMC2cLksQ7n1ymTE4a4Tj9R4BOGsxwECBAgQIDAlQQEOnXYUMsUhplCsDJNLT/NvCpMMQ/FyrnjPJR1Cobqd+AMAgQIECBAYJOAQKfO9jIlP2RowhYPIeAZVpIuzbxqqHGaZ74p/K6/A2cQIECAAIFNAgKdTWznD6lx2ufn0wQIECBA4KoCAp19vAKdfX4+TYAAAQIEriog0NnHm/O7xa7loe3SCsz7nsynCRAgQIDAGxAQ6Ox7iff0O7c9FEer89n3Hn2aAAECBN6oQGtHPc46Wu6TtZg+vbWTfdkgc7H/1ml7hLA9xdbrxq/qZSPTdTvnfb9O7fZmYlr9Wr8+of2Udcojntoeztk6XX0srp53sp/3QhszRtuv2frMziNAgAABAlcTqHXUU6c7rAlT3cTy58O3Hx+b7nPa7ymxMWZis9HQ0fYGH/NNjFsuxMFZ6TmGc3uPml/P9aYFBsvWy6Gq0ho+YXZY7X1cTHOfXRZBzsU7H/7cSs49b9O5BAgQIPBbCJQ66uxeTrlgYcwAlBfAu9jvKbGJ6NT5hinci93Bx873U5fXvGFp3DmHzj/8WXJD0zsGOqktIrLB5Ri8fapsynryG9/J36tgcVoPaBFURYHM9B5OgeLFu/j18O37h6534WQCBAgQIHA3gVygMwcb45DJGBgshjYq2Z0QIKWOcd2Z5GfX568CoqEjrmUoXjI5P6d2KoHLNKR1Onc8v39H8SMyOtUg51R0HExehuGmlZeLmbbT8OK8wOE8FLj6XCWQXN3fhsDzbl9wDRMgQIDA+xYoDZXksjPT/+kXhliGv0sNN6WDgvxw0bqDrQ8txTuEt2SCplWP7xPojMN4hcAxN3SXz4zNmZx05iUVHJVWcV4Fj4shLpmd9/3fDk9PgACBVyGQC1hq9RihkytlIkJGaHnkhsFKBcehjfX9pbNFpQ55LqgtZYTmWqTWrNHc3t6MTnII7Rz41J51vSP6HLClAs3VkODQTmi/5Ui+iw1DfS1tOYcAAQIECBwmsHcdmGywEw0Dpdpp6WRT9Tqlh28ZzpmH43qDmlS7ewOdXKAZB4qptrPZoMQQXO7cnplt6WC1HIwd9kV1IQIECBAgsEVgb0cd2swFF3MnuqeTDUNP8dBOKdtUzpAsCpzPQzDDGjTD0NXWY49fdvipMVOSsskNwaWLrw+oSdpQ17TV2ucIECBAgEC3wJ6Oem4s12HPWYlkJqCjg4zvsZQJqtaulGaMFXYcz8HuyYjlsmGtWZbWQCcMY6Uzas/d35fUPe8JFLtvwAcIECBAgECPwBGBzpTVSRQnnzITuTVzWopZk515JUjqzuosgp/a9PjYNluU3TAdPufS+v5yAUw8e+xcbB0Feb3PGu4rFUi2DEG2PpPzCBAgQIDAoQJHBTrJ7MQpICktbBevTJz8fZyFacgGrdaJqU6JfxnW6gkA9gU66+Cwd++qlveXDfwagrH4yxbqmlazxBrex6FfWhcjQIAAAQKtAi0dZcu1kkNG50AnMxV9uQpv86/D2jFtBbDnxQcbVnaOFyhseeZsJmucql5f4DA9nFRecLEpo7QqBE+vQt36jNU2BTpbKX2OAAECBK4tcFSgUxpi2lPHctTzT5mIsMXCab+rSoanpe4kO3S0I9BpCZCWJi3vr+WcHufV9QQ6PXzOJUCAAIFbChzZCa47wGmBvyPbKNnMezfV/FYbZ6aCnoaZT9li4OF6LQXFqRWKa/deza4kFj482l+g0/uWnE+AAAECdxMoFRH33lRudlSujuWIdWyW9zjtvl1fPXn5mfPGlhvqgEqBTsvw2tsJdPrMe79XzidAgAABApsFrhnozMM/uWLknqLf2gOeh5E6A535utOO6pebXNZ2Td8d6IShtGjz0tpzbsvoZPbEaqgjWre3XtfIrKvet+Z8AgQIELiZwFHrq6zqVRb7XeWnN7dtP9CC8bIJ6eXWEy2fPQc7855X58UEywXF5TV76gXTqxlMG2pdWoalUls/hACrpQ4p9ku9yyMD1p735VwCBAgQIFAUyGUktnRccae//L/80novtaxJ6ys8d/gbMzpzOy/Xqa8anNu/KwQRrVmOONvVUtuzNGkJdJJTwht2d0/Zr6aqbwjOWt+p8wgQIECAwC6B5NYMmZ3Haw1ddIDDNeL6m1xWoXfdmNR9XDzHjo73IiBruE7umaZtGNrqVuJ30OvREugEs9xaOr1ZnXUdVv/qyrXvkr8nQIAAAQKHCCQ76oYOPm58HTClh22uVasTd+JbMlJTMLDcDbw+9FTcQLTD8aLdRJBYetmtgU5pA9DWovBVBmtjUHzIl9dFCBAgQIBATSA16yd0Zj2BQtjGYdnZljIS41BZcquIoQi4ozA2dMxz55wcFhsXH6wv2Lf0uRh6a8zGZFdFTkzx7noXje2Ha7YGOlMg9/d6VePG7FPq3fV8T2rP7+8JECBAgMChAqm6jbnjCsFK+KnVz4zXCAvwnYp35008yxmIfLBTG0YJWYkxe7MIBHIbY4YAoLUjvggAGoOk4rDV7NG5SegyM9UyhJUr8g7Pnjvy23H8Kr7v+HOttod+aV2MAAECBAi0CsQBQhykzCsIh843dGrL4Y3w64u9pEJQ0dGpT9mB3JTnX+NsoGV7of05CFgGANnhmGjKdrjXcO66bujz5X0M99QyjNO8Q3pj0LR8Z9Pqzadp7sP9xAFFuL/gU9y4tBjoZALNUxYqXv9n9a6Ga/cWTLd+J51HgAABAgQOEZgyMS9rxuQyMatsybwf1Xn6dciabJ/OXd14c7H/VejY4w62OHSU2+JhuafW4jlaFvhLDv+M1wsBSRgWWmwxcQ5WgtFzV3AwBZJD5mp5f7H9+e/ClhZR0FipD8oOIZbaG5+nXrd0yBfURQgQIECAwB6BuWNMBQ/xdV+Gi0KHPv1MnfBjdWir5R5X2zHEwc2QvcgNoYUOexq+CQvvTT9T8HTq/M//fLn3+Rmm4KQvAFk+/9huoQ5oWnE5ZKLm++mvG5rsl5+fg6pQNP14Dp7Ww0r19YlCbdU50FwGf9Gv54xey7t0DgECBAgQuLvA1HE9Nw3R3P1m3UCTQJzZqtU6NV3USQQIECBAgACBewuUVqS+971pnwABAgQIECCwSyCeedW6IvOuRn2YAAECBAgQIHALAdO+b6GsDQIECBAgQODmAqtp7h0LDd78ZjVIgAABAgQIEOgR2LshaE9bziVAgAABAgQI3EwgXpm5ZSXlm92chggQIECAAAECWwXCKtTnxQQb96ra2pbPESBAgAABAgRuJpDaxNSWDDfj1xABAgQIECBwTYFVXc6wQrODAAECBAgQIPDqBdZTyZ9f/TN5AAIECBAgQIDAauNOxce+FAQIECBAgMCbEJDJeROv0UMQIECAAAECS4FvPz7K5PhKECBAgAABAtcVmAKOT+NPmOE07QD/+aqNjlPIn/69mEYe1s5xECBAgAABAgSaBMZAouUnrFVz8fPYdP2tJ8WLAYZ7vHZgtfVefY4AAQIECBD4TQVCpiYU9V4GMXFQc/n7sFv4tY6QLYrrccbfD5kkBwECBAgQIEBgk0AywFhlcYaAZ8isXOP49v1DMuAys+oa2q5JgAABAgTeqUCovSlmd8ZhrmOzK1+fH1e1OONQ1VCj4yBAgAABAgQIHCqwqo+JMzsH1cskA5yhrZDFCRkeBwECBAgQIEDgKgKh8Dee8bTK9Ay1M70FwtOMraEmKJpNFa4dskn2rLrK63RRAgQIECBAIBaYppMPhcCpWp3ln40ZniFIGYqUQ3Hz8gjXCMFQLrgZr70hYPK2CBAgQIAAAQKHCOSGmLIB0HK6ei5ImoOjIcPjIECAAAECBAjcXaA07FTN+oyZm2nNnlAD9PjPH3d/HjdAgAABAgQIEEgKjNPRh9lS4yytcZ2b3MKDoY7neRy+Etz4MhEgQIAAAQIECBAgQIAAAQIECBAgQIAAAQIECBAgQIAAAQIECBAgQIAAAQIECBAgQIAAAQIECBAgQIAAAQIECBAgQIAAAQIECBAgQIAAAQIECBAgQIAAAQIECBAgQIAAAQIECBAgQIAAAQIECBAgQIAAAQIECBAgQIAAAQIECBAgQIAAAQIECBAgQIAAAQIECBAgQIAAAQIECBAgQIAAAQIECBAgQIAAAQIECBAgQIAAAQIECBAgQIAAAQIECBAgQIAAAQIECBAgQIAAAQIECBAgQIAAAQIECBAgQIAAAQIECBAgQIAAAQIECBAgQIAAAQIECBAgQIAAAQIECBAgQIAAAQIECBAgQIAAAQIECBAgQIAAAQIECBAgQIAAAQIECBAgQIAAAQIECBAgQIAAAQIECBAgQIAAAQIECBAgQIAAAQIECBAgQIAAAQIECBAgQIAAAQKvXuD/q/vgAIn9YLIAAAAASUVORK5CYII=;" vertex="1" parent="1">
          <mxGeometry x="-220" y="170" width="1330" height="280" as="geometry" />
        </mxCell>
      </root>
    </mxGraphModel>
  </diagram>
</mxfile>
